<?xml version="1.0" encoding="utf-8"?>
<!-- Generator: Adobe Illustrator 25.4.1, SVG Export Plug-In . SVG Version: 6.00 Build 0)  -->
<svg version="1.1" id="Capa_1" xmlns="http://www.w3.org/2000/svg" xmlns:xlink="http://www.w3.org/1999/xlink" x="0px" y="0px"
	 viewBox="0 0 512 512" style="enable-background:new 0 0 512 512;" xml:space="preserve">
<style type="text/css">
	.st0{fill:#FD6F96;}
	.st1{fill:#8BB3EA;}
	.st2{fill:#739AD6;}
	.st3{fill:#EDF4FF;}
	.st4{fill:#DBEAFF;}
	.st5{fill:#FF8086;}
	.st6{fill:#E5646E;}
	.st7{fill:#B8DAFF;}
	.st8{fill:#A4CCFF;}
	.st9{fill:#FFFFFF;}
	.st10{font-family:'PressStart2P-Regular';}
	.st11{font-size:42.854px;}
</style>
<path class="st0" d="M415.5,253.1H80.8c-11.9,0-21.5-9.3-21.5-20.8v-51.1c0-11.5,9.6-20.8,21.5-20.8h334.7
	c11.9,0,21.5,9.3,21.5,20.8v51.1C437,243.7,427.4,253.1,415.5,253.1z"/>
<g>
	<g>
		<path class="st1" d="M147.3,235.9H74.6l36.3-66.3L147.3,235.9z"/>
		<path class="st1" d="M147.3,235.9H74.6L108,175l3-5.4L147.3,235.9z"/>
		<path class="st2" d="M147.3,235.9h-4.4l-18.5-6.7c-1.2-0.4-2.1-1.4-2.4-2.5L108,175l3-5.4L147.3,235.9z"/>
		<path class="st3" d="M147.3,235.9l-18.5-6.7c-1.2-0.4-2.1-1.4-2.4-2.5l-15.5-57.1l13.9,25.3l8.1,14.8L147.3,235.9z"/>
		<path class="st4" d="M132.9,209.7h-5.5c-0.4,0-0.8-0.1-1.1-0.2c-0.9-0.4-1.5-1.2-1.5-2.1v-12.1c0-0.1,0-0.3,0.1-0.4L132.9,209.7z"
			/>
		<path class="st4" d="M141.7,233.9l5.5,2l-36.3-66.3l4.3,16L141.7,233.9z"/>
		<path class="st5" d="M150.8,193.9L138,205.1h7.5c0.9,0,1.6,0.6,1.6,1.4v1.7c0,0.8-0.7,1.4-1.6,1.4h-13.7c-0.4,0-0.8-0.1-1.1-0.2
			c-0.9-0.4-1.5-1.2-1.5-2.1v-12.1c0-0.8,0.7-1.4,1.6-1.4h1.9c0.9,0,1.6,0.6,1.6,1.4v6.6l12.7-11.2c0.6-0.6,1.7-0.6,2.3,0l1.4,1.2
			C151.4,192.4,151.4,193.4,150.8,193.9L150.8,193.9z"/>
		<g>
			<path class="st6" d="M150.8,191.9l-1.4-1.2c-0.6-0.6-1.7-0.6-2.3,0l-1.1,0.9l0.3,0.3c0.6,0.6,0.6,1.5,0,2l-11.2,9.8
				c-0.6,0.5-0.2,1.4,0.6,1.4h2.2l12.7-11.2C151.4,193.4,151.4,192.4,150.8,191.9L150.8,191.9z"/>
			<path class="st6" d="M145.5,205.1h-4.4c0.9,0,1.6,0.6,1.6,1.4v1.7c0,0.8-0.7,1.4-1.6,1.4h4.4c0.9,0,1.6-0.6,1.6-1.4v-1.7
				C147.2,205.7,146.5,205.1,145.5,205.1L145.5,205.1z"/>
		</g>
		<path class="st7" d="M110.9,169.6v68.7c0,1.2-1.2,2.2-2.6,2l-33.7-4.4L110.9,169.6z"/>
		<path class="st8" d="M106.5,177.7v60.7c0,0.7-0.4,1.3-0.9,1.6l2.8,0.4c1.4,0.2,2.6-0.8,2.6-2v-68.7L106.5,177.7z"/>
	</g>
	<path d="M151.6,191.1l-1.4-1.2c-1.1-1-2.9-1-4,0l-10.6,9.4v-4c0-1.4-1.3-2.5-2.9-2.5h-1.9c-1.6,0-2.9,1.1-2.9,2.5v2.9l-15.9-29
		c-0.4-0.7-1.7-0.9-2.2,0l-36.3,66.3c-0.3,0.6,0.1,1.4,0.9,1.5l33.7,4.4c1.8,0.3,4.1-1.1,4-3v-59.6l13.1,48.3
		c0.4,1.5,1.6,2.7,3.1,3.2l12.8,4.7h-24.4c-0.7,0-1.2,0.5-1.2,1.1c0,0.6,0.5,1.1,1.2,1.1h30.5c0.7,0,1.6-0.8,1.1-1.5l-11.6-21.2
		c-0.3-0.5-1-0.8-1.6-0.5c-0.6,0.3-0.9,0.9-0.6,1.4l10.3,18.7l-15.5-5.6c-0.9-0.3-1.5-1-1.7-1.8l-12.8-47.5l13.2,24.1v4.3
		c0,1.7,1.6,3.4,3.9,3.4h13.7c1.6,0,2.9-1.1,2.9-2.5v-1.7c0-1.4-1.3-2.5-2.9-2.5H141l10.6-9.4C152.7,193.7,152.7,192.1,151.6,191.1
		L151.6,191.1z M109.7,238.3c-0.1,0.6-0.3,0.9-1.2,0.9l-32.1-4.2l33.3-60.8V238.3z M149.9,193.2l-12.7,11.2
		c-0.3,0.3-0.5,0.8-0.3,1.2c0.2,0.4,0.6,0.7,1.1,0.7h7.5c0.2,0,0.4,0.2,0.4,0.4v1.7c0,0.2-0.2,0.4-0.4,0.4h-13.7
		c-0.6,0-1.4-0.4-1.4-1.2v-12.1c0-0.2,0.2-0.4,0.4-0.4h1.9c0.2,0,0.4,0.2,0.4,0.4v6.6c0,0.4,0.3,0.8,0.8,1c0.5,0.2,1,0.1,1.3-0.2
		l12.7-11.2c0.2-0.1,0.4-0.1,0.6,0l1.4,1.2C150.1,192.8,150.1,193,149.9,193.2L149.9,193.2z"/>
</g>
<text transform="matrix(0.7916 0 0 1 156.5831 227.0598)" class="st9 st10 st11">SIGN UP</text>
</svg>
