<?xml version="1.0" encoding="utf-8"?>
<!-- Generator: Adobe Illustrator 25.4.1, SVG Export Plug-In . SVG Version: 6.00 Build 0)  -->
<svg version="1.1" id="Capa_1" xmlns="http://www.w3.org/2000/svg" xmlns:xlink="http://www.w3.org/1999/xlink" x="0px" y="0px"
	 viewBox="0 0 364.5 92.6" style="enable-background:new 0 0 364.5 92.6;" xml:space="preserve">
<style type="text/css">
	.st0{fill:#95DAC1;}
	.st1{fill:#FF8086;}
	.st2{fill:#E5646E;}
	.st3{fill:#6E61B6;}
	.st4{fill:#6354B1;}
	.st5{fill:#C2BCE0;}
	.st6{fill:#ACA6D6;}
	.st7{fill:#978ECB;}
	.st8{fill:#8379C1;}
	.st9{fill:#FFFFFF;}
	.st10{font-family:'PressStart2P-Regular';}
	.st11{font-size:42.854px;}
</style>
<path class="st0" d="M352,107.9H21.3C9.5,107.9,0,97,0,83.7V24.2C0,10.8,9.5,0,21.3,0H352c11.7,0,21.3,10.8,21.3,24.2v59.5
	C373.2,97,363.7,107.9,352,107.9z"/>
<g>
	<g>
		<path class="st1" d="M37.3,51.4l3.9,0.4l1,0.1l7.6,7.9l-8.2,7.8l-2.5,2.3c-0.4,0.4-1,0.6-1.5,0.5c-0.7-0.1-1.4-0.5-1.6-1.3
			l-5.4-18.4L37.3,51.4z"/>
		<path class="st2" d="M37.3,51.4l3.9,0.4c0.6,1.9,1.1,3.5,1.1,3.5l-0.8,12.3l-2.5,2.3c-0.4,0.4-1,0.6-1.5,0.5
			c-0.7-0.1-1.4-0.5-1.6-1.3l-5.4-18.4L37.3,51.4z"/>
		<path class="st3" d="M37.3,51.4c0.6,2,1.2,3.9,1.2,3.9l-1,15.2c-0.7-0.1-1.4-0.5-1.6-1.3l-5.4-18.4L37.3,51.4z"/>
		<path class="st4" d="M30.5,50.8l5.4,18.4c0.2,0.8,0.9,1.2,1.6,1.3l0.5-7.2l-3.6-12.1L30.5,50.8z"/>
		<path class="st5" d="M11.9,40.2c-1.7-0.9-1.4-3.2,0.4-3.9l73.1-26.2c0.6-0.2,1.1-0.1,1.5,0.2c0.1,0,0.1,0.1,0.1,0.1
			c0.4,0.4,0.6,1,0.4,1.5L59,79.5c-0.7,1.7-3.2,1.9-4.2,0.4L41.9,60.4l-3.4-5.1l-5.6-3.1L11.9,40.2L11.9,40.2z"/>
		<path class="st6" d="M12.3,36.4c-1.8,0.6-2,2.9-0.4,3.9l21,11.9l5.6,3.1l3.4,5.1l12.9,19.4c1,1.5,3.5,1.3,4.2-0.4l0.8-1.9
			c-0.8,0.1-1.7-0.2-2.2-1L46.8,60.4l-3.4-5.1l-5.6-3.1l-21-11.9c-1.7-0.9-1.4-3.2,0.4-3.9l70.3-25.2c-0.1-0.3-0.2-0.5-0.4-0.7
			c-0.1,0-0.1-0.1-0.1-0.1c-0.4-0.3-1-0.4-1.5-0.2L12.3,36.4L12.3,36.4z"/>
		<path class="st7" d="M87,10.4c0.1,0,0.1,0.1,0.1,0.1L38.5,55.3l-8-4.5L87,10.4z"/>
		<path class="st8" d="M30.5,50.8l8,4.5l1.9-1.7l-5-2.8l35.8-25.6l15.9-14.7c-0.1,0-0.1-0.1-0.1-0.1L30.5,50.8z"/>
	</g>
	<path d="M9.7,38.1c-0.1,1.2,0.5,2.4,1.7,3l26,14.7l-0.7,11.5L33.2,56c-0.2-0.6-0.8-0.9-1.4-0.8c-0.6,0.1-1,0.7-0.8,1.3l3.8,12.9
		c0.6,2.2,3.7,2.7,5.1,1.2l4.6-4.4l9.3,14c1.5,2.3,5.4,1.8,6.2-0.5l28.5-67.4c0.9-2.1-1.5-4-3.5-3.2l-17.6,6.3
		c-0.6,0.2-0.9,0.8-0.7,1.4s0.9,0.8,1.5,0.6l13.8-5L30.4,49.5L12.5,39.3c-0.9-0.6-0.6-1.7,0.2-1.9l50.4-18.1
		c0.6-0.2,0.9-0.8,0.7-1.4c-0.2-0.6-0.9-0.8-1.5-0.6L11.9,35.4C10.6,35.8,9.8,36.9,9.7,38.1L9.7,38.1z M74.4,20.7l-36,33.2l-5.8-3.3
		L74.4,20.7z M40,55.5l45.7-42.1L57.9,79.1c-0.4,0.9-1.7,0.8-2.1,0.2L40,55.5z M38.8,68.7l0.6-9.9l3.8,5.7L38.8,68.7z"/>
</g>
<text transform="matrix(0.7916 0 0 1 102.1422 68.66)" class="st9 st10 st11">LOG IN </text>
</svg>
