<?xml version="1.0" encoding="utf-8"?>
<!-- Generator: Adobe Illustrator 25.4.1, SVG Export Plug-In . SVG Version: 6.00 Build 0)  -->
<svg version="1.1" id="Capa_1" xmlns="http://www.w3.org/2000/svg" xmlns:xlink="http://www.w3.org/1999/xlink" x="0px" y="0px"
	 viewBox="0 0 512 512" style="enable-background:new 0 0 512 512;" xml:space="preserve">
<style type="text/css">
	.st0{fill:#FF8086;}
	.st1{fill:#E5646E;}
	.st2{fill:#6E61B6;}
	.st3{fill:#6354B1;}
	.st4{fill:#C2BCE0;}
	.st5{fill:#ACA6D6;}
	.st6{fill:#978ECB;}
	.st7{fill:#8379C1;}
</style>
<g>
	<g>
		<path class="st0" d="M178.8,298l25.6,2.6l6.5,0.7l49,55.7l-53.3,54.8l-16,16.4c-2.8,2.9-6.5,4-10,3.6c-4.8-0.5-9.2-3.7-10.6-9
			l-34.9-129.4L178.8,298z"/>
		<path class="st1" d="M178.8,298l25.6,2.6c3.8,13,7.3,24.7,7.3,24.7l-5.1,86.5l-16,16.4c-2.8,2.9-6.5,4-10,3.6
			c-4.8-0.5-9.2-3.7-10.6-9l-34.9-129.4L178.8,298z"/>
		<path class="st2" d="M178.8,298c4.1,14,8.1,27.3,8.1,27.3l-6.3,106.5c-4.8-0.5-9.2-3.7-10.6-9l-34.9-129.4L178.8,298z"/>
		<path class="st3" d="M135.1,293.5l34.9,129.4c1.4,5.3,5.9,8.5,10.6,9l3-50.4l-23-85.3L135.1,293.5z"/>
		<path class="st4" d="M14.7,219.6c-10.7-6.6-9.2-22.5,2.4-27L490.8,8.3c3.6-1.4,7.2-0.6,9.8,1.4c0.4,0.3,0.7,0.6,1,0.9
			c2.6,2.6,3.9,6.7,2.3,10.8L319.6,495c-4.5,11.7-20.5,13.1-27,2.4L209,361.3l-22.1-36l-36-22.1L14.7,219.6L14.7,219.6z"/>
		<path class="st5" d="M17.2,192.5c-11.7,4.5-13.1,20.5-2.4,27l136.1,83.6l36,22.1l22.1,36l83.6,136.1c6.6,10.7,22.5,9.2,27-2.4
			l5.2-13.4c-5.5,0.6-11.2-1.7-14.6-7.1l-69.5-113.2l-22.1-36l-36-22.1L46.5,219.6c-10.7-6.6-9.2-22.5,2.4-27L504.3,15.5
			c-0.4-1.9-1.4-3.5-2.7-4.8c-0.3-0.3-0.6-0.6-1-0.9c-2.6-2-6.2-2.8-9.8-1.4L17.2,192.5L17.2,192.5z"/>
		<path class="st6" d="M500.6,9.7c0.4,0.3,0.7,0.6,1,0.9L186.9,325.3l-51.8-31.8L500.6,9.7z"/>
		<path class="st7" d="M135.1,293.5l51.8,31.8l12.1-12.1l-32.1-19.7l231.8-179.9L501.6,10.6c-0.3-0.3-0.6-0.6-1-0.9L135.1,293.5z"/>
	</g>
	<path d="M0.1,204.6c-0.8,8.6,3.3,16.8,10.7,21.4l168.3,103.3l-4.8,80.9l-21.6-80c-1.1-4-5.2-6.4-9.2-5.3c-4,1.1-6.4,5.2-5.3,9.2
		l24.4,90.6c3.8,15.2,24.1,18.8,33.2,8.6l29.8-30.6l60.5,98.5c9.6,16.3,34.7,12.7,40.4-3.6L510.8,24.1c5.6-14.5-9.9-28.3-22.8-22.8
		L373.7,45.8c-3.9,1.5-5.8,5.8-4.3,9.7c1.5,3.9,5.8,5.8,9.7,4.3L468.7,25L134.6,284.4L18.7,213.2c-5.9-4-3.5-11.9,1.2-13.7
		l326.5-127c3.9-1.5,5.8-5.8,4.3-9.7c-1.5-3.9-5.8-5.8-9.7-4.3l-326.5,127C6.4,188.7,0.9,196,0.1,204.6L0.1,204.6z M419,82.5
		L185.8,315.8l-37.5-23L419,82.5z M196.4,326.4L492.2,30.6L312.6,492.3c-2.9,6.5-11.1,5.6-13.7,1.2L196.4,326.4z M188.8,419.2
		l4.1-69.7l24.6,40.1L188.8,419.2z"/>
</g>
</svg>
