<?xml version="1.0" encoding="utf-8"?>
<!-- Generator: Adobe Illustrator 25.4.1, SVG Export Plug-In . SVG Version: 6.00 Build 0)  -->
<svg version="1.1" id="Layer_1" xmlns="http://www.w3.org/2000/svg" xmlns:xlink="http://www.w3.org/1999/xlink" x="0px" y="0px"
	 viewBox="0 0 359 191" style="enable-background:new 0 0 359 191;" xml:space="preserve">
<style type="text/css">
	.st0{fill:#6E69AB;}
	.st1{stroke:#000000;}
	.st2{fill:#FFFFFF;}
	.st3{fill:none;stroke:#FFFFFF;stroke-width:0.75;}
	.st4{fill:none;stroke:#FFFFFF;stroke-width:7;stroke-miterlimit:10;}
	.st5{fill:none;stroke:#000000;stroke-width:7;stroke-miterlimit:10;}
</style>
<g>
	<rect x="0.48" y="-0.45" class="st0" width="358.05" height="191.78"/>
	<g>
		<g>
			<path class="st1" d="M43.75,91.82c1.77-0.36,4.3-0.58,6.7-0.58c3.7,0,6.13,0.7,7.81,2.22c1.33,1.18,2.11,3.02,2.11,5.12
				c0,3.54-2.26,5.9-5.08,6.87v0.1c2.06,0.72,3.3,2.67,3.95,5.46c0.89,3.77,1.53,6.34,2.07,7.4H57.7c-0.42-0.78-1.03-3.08-1.77-6.45
				c-0.8-3.69-2.26-5.12-5.41-5.23h-3.29v11.68h-3.48V91.82z M47.23,104.09h3.56c3.73,0,6.09-2.03,6.09-5.12
				c0-3.5-2.53-5.02-6.2-5.03c-1.69,0-2.86,0.15-3.45,0.31V104.09z"/>
			<path class="st1" d="M79.22,105.77H68.77v9.74h11.69v2.9H65.27V91.45h14.57v2.9H68.77v8.54h10.45V105.77z"/>
			<path class="st1" d="M89.32,109.94l-2.79,8.47h-3.61l9.17-26.96h4.19l9.21,26.96h-3.72l-2.89-8.47H89.32z M98.17,107.21
				l-2.67-7.76c-0.58-1.76-0.99-3.37-1.39-4.92h-0.09c-0.39,1.58-0.81,3.22-1.34,4.87l-2.66,7.8H98.17z"/>
			<path class="st1" d="M109.43,91.82c2.14-0.35,4.67-0.58,7.41-0.58c4.99,0,8.56,1.18,10.92,3.39c2.41,2.18,3.82,5.3,3.82,9.64
				c0,4.42-1.38,8-3.88,10.49c-2.55,2.51-6.71,3.89-11.93,3.89c-2.49,0-4.56-0.1-6.33-0.3V91.82z M112.92,115.67
				c0.88,0.14,2.17,0.16,3.5,0.16c7.46,0.02,11.48-4.14,11.48-11.43c0.04-6.37-3.56-10.38-10.9-10.38c-1.8,0-3.15,0.17-4.08,0.35
				V115.67z"/>
			<path class="st1" d="M139.57,91.45v26.96h-3.5V91.45H139.57z"/>
			<path class="st1" d="M145.63,118.41V91.45h3.83l8.63,13.62c1.97,3.16,3.54,6,4.81,8.78l0.09-0.04c-0.32-3.6-0.38-6.88-0.38-11.06
				v-11.3h3.28v26.96h-3.54l-8.57-13.66c-1.86-3.02-3.67-6.09-5.01-9.03l-0.12,0.04c0.21,3.42,0.26,6.66,0.26,11.12v11.53H145.63z"
				/>
			<path class="st1" d="M192.49,117.2c-1.56,0.59-4.66,1.48-8.29,1.48c-4.09,0-7.46-1.03-10.08-3.56
				c-2.32-2.24-3.75-5.81-3.75-10.01c0.01-8.04,5.54-13.92,14.57-13.92c3.11,0,5.58,0.69,6.74,1.24l-0.87,2.84
				c-1.44-0.65-3.23-1.15-5.95-1.15c-6.54,0-10.83,4.07-10.83,10.82c0,6.83,4.1,10.88,10.41,10.88c2.28,0,3.82-0.32,4.62-0.73v-8.03
				h-5.46v-2.78h8.88V117.2z"/>
			<path class="st1" d="M197.79,91.82c1.77-0.36,4.3-0.58,6.7-0.58c3.7,0,6.13,0.7,7.81,2.22c1.33,1.18,2.11,3.02,2.11,5.12
				c0,3.54-2.26,5.9-5.08,6.87v0.1c2.05,0.72,3.3,2.67,3.95,5.46c0.89,3.77,1.53,6.34,2.07,7.4h-3.61
				c-0.42-0.78-1.03-3.08-1.77-6.45c-0.8-3.69-2.26-5.12-5.41-5.23h-3.29v11.68h-3.48V91.82z M201.26,104.09h3.56
				c3.73,0,6.09-2.03,6.09-5.12c0-3.5-2.53-5.02-6.2-5.03c-1.69,0-2.86,0.15-3.45,0.31V104.09z"/>
			<path class="st1" d="M242.48,104.66c0,9.25-5.63,14.19-12.51,14.19c-7.15,0-12.12-5.54-12.12-13.68
				c0-8.54,5.29-14.16,12.48-14.16C237.7,91.01,242.48,96.65,242.48,104.66z M221.54,105.09c0,5.77,3.13,10.93,8.62,10.93
				c5.53,0,8.64-5.08,8.64-11.2c0-5.37-2.8-10.97-8.59-10.97C224.42,93.84,221.54,99.19,221.54,105.09z"/>
			<path class="st1" d="M270.04,104.66c0,9.25-5.63,14.19-12.51,14.19c-7.15,0-12.12-5.54-12.12-13.68
				c0-8.54,5.29-14.16,12.48-14.16C265.26,91.01,270.04,96.65,270.04,104.66z M249.1,105.09c0,5.77,3.13,10.93,8.62,10.93
				c5.53,0,8.64-5.08,8.64-11.2c0-5.37-2.8-10.97-8.59-10.97C251.98,93.84,249.1,99.19,249.1,105.09z"/>
			<path class="st1" d="M297.29,106.57c-0.21-3.75-0.45-8.29-0.43-11.63h-0.11c-0.93,3.13-2.05,6.52-3.39,10.22l-4.76,13.08h-2.63
				l-4.39-12.84c-1.28-3.81-2.33-7.27-3.09-10.46h-0.09c-0.09,3.36-0.27,7.85-0.53,11.89l-0.72,11.57h-3.31l1.88-26.96h4.45
				l4.59,13.05c1.11,3.3,2.02,6.27,2.71,9.08h0.11c0.71-2.73,1.65-5.7,2.85-9.08l4.81-13.05h4.45l1.67,26.96h-3.42L297.29,106.57z"
				/>
		</g>
		<g>
			<path class="st2" d="M43.75,91.82c1.77-0.36,4.3-0.58,6.7-0.58c3.7,0,6.13,0.7,7.81,2.22c1.33,1.18,2.11,3.02,2.11,5.12
				c0,3.54-2.26,5.9-5.08,6.87v0.1c2.06,0.72,3.3,2.67,3.95,5.46c0.89,3.77,1.53,6.34,2.07,7.4H57.7c-0.42-0.78-1.03-3.08-1.77-6.45
				c-0.8-3.69-2.26-5.12-5.41-5.23h-3.29v11.68h-3.48V91.82z M47.23,104.09h3.56c3.73,0,6.09-2.03,6.09-5.12
				c0-3.5-2.53-5.02-6.2-5.03c-1.69,0-2.86,0.15-3.45,0.31V104.09z"/>
			<path class="st2" d="M79.22,105.77H68.77v9.74h11.69v2.9H65.27V91.45h14.57v2.9H68.77v8.54h10.45V105.77z"/>
			<path class="st2" d="M89.32,109.94l-2.79,8.47h-3.61l9.17-26.96h4.19l9.21,26.96h-3.72l-2.89-8.47H89.32z M98.17,107.21
				l-2.67-7.76c-0.58-1.76-0.99-3.37-1.39-4.92h-0.09c-0.39,1.58-0.81,3.22-1.34,4.87l-2.66,7.8H98.17z"/>
			<path class="st2" d="M109.43,91.82c2.14-0.35,4.67-0.58,7.41-0.58c4.99,0,8.56,1.18,10.92,3.39c2.41,2.18,3.82,5.3,3.82,9.64
				c0,4.42-1.38,8-3.88,10.49c-2.55,2.51-6.71,3.89-11.93,3.89c-2.49,0-4.56-0.1-6.33-0.3V91.82z M112.92,115.67
				c0.88,0.14,2.17,0.16,3.5,0.16c7.46,0.02,11.48-4.14,11.48-11.43c0.04-6.37-3.56-10.38-10.9-10.38c-1.8,0-3.15,0.17-4.08,0.35
				V115.67z"/>
			<path class="st2" d="M139.57,91.45v26.96h-3.5V91.45H139.57z"/>
			<path class="st2" d="M145.63,118.41V91.45h3.83l8.63,13.62c1.97,3.16,3.54,6,4.81,8.78l0.09-0.04c-0.32-3.6-0.38-6.88-0.38-11.06
				v-11.3h3.28v26.96h-3.54l-8.57-13.66c-1.86-3.02-3.67-6.09-5.01-9.03l-0.12,0.04c0.21,3.42,0.26,6.66,0.26,11.12v11.53H145.63z"
				/>
			<path class="st2" d="M192.49,117.2c-1.56,0.59-4.66,1.48-8.29,1.48c-4.09,0-7.46-1.03-10.08-3.56
				c-2.32-2.24-3.75-5.81-3.75-10.01c0.01-8.04,5.54-13.92,14.57-13.92c3.11,0,5.58,0.69,6.74,1.24l-0.87,2.84
				c-1.44-0.65-3.23-1.15-5.95-1.15c-6.54,0-10.83,4.07-10.83,10.82c0,6.83,4.1,10.88,10.41,10.88c2.28,0,3.82-0.32,4.62-0.73v-8.03
				h-5.46v-2.78h8.88V117.2z"/>
			<path class="st2" d="M197.79,91.82c1.77-0.36,4.3-0.58,6.7-0.58c3.7,0,6.13,0.7,7.81,2.22c1.33,1.18,2.11,3.02,2.11,5.12
				c0,3.54-2.26,5.9-5.08,6.87v0.1c2.05,0.72,3.3,2.67,3.95,5.46c0.89,3.77,1.53,6.34,2.07,7.4h-3.61
				c-0.42-0.78-1.03-3.08-1.77-6.45c-0.8-3.69-2.26-5.12-5.41-5.23h-3.29v11.68h-3.48V91.82z M201.26,104.09h3.56
				c3.73,0,6.09-2.03,6.09-5.12c0-3.5-2.53-5.02-6.2-5.03c-1.69,0-2.86,0.15-3.45,0.31V104.09z"/>
			<path class="st2" d="M242.48,104.66c0,9.25-5.63,14.19-12.51,14.19c-7.15,0-12.12-5.54-12.12-13.68
				c0-8.54,5.29-14.16,12.48-14.16C237.7,91.01,242.48,96.65,242.48,104.66z M221.54,105.09c0,5.77,3.13,10.93,8.62,10.93
				c5.53,0,8.64-5.08,8.64-11.2c0-5.37-2.8-10.97-8.59-10.97C224.42,93.84,221.54,99.19,221.54,105.09z"/>
			<path class="st2" d="M270.04,104.66c0,9.25-5.63,14.19-12.51,14.19c-7.15,0-12.12-5.54-12.12-13.68
				c0-8.54,5.29-14.16,12.48-14.16C265.26,91.01,270.04,96.65,270.04,104.66z M249.1,105.09c0,5.77,3.13,10.93,8.62,10.93
				c5.53,0,8.64-5.08,8.64-11.2c0-5.37-2.8-10.97-8.59-10.97C251.98,93.84,249.1,99.19,249.1,105.09z"/>
			<path class="st2" d="M297.29,106.57c-0.21-3.75-0.45-8.29-0.43-11.63h-0.11c-0.93,3.13-2.05,6.52-3.39,10.22l-4.76,13.08h-2.63
				l-4.39-12.84c-1.28-3.81-2.33-7.27-3.09-10.46h-0.09c-0.09,3.36-0.27,7.85-0.53,11.89l-0.72,11.57h-3.31l1.88-26.96h4.45
				l4.59,13.05c1.11,3.3,2.02,6.27,2.71,9.08h0.11c0.71-2.73,1.65-5.7,2.85-9.08l4.81-13.05h4.45l1.67,26.96h-3.42L297.29,106.57z"
				/>
		</g>
		<g>
			<path class="st3" d="M43.75,91.82c1.77-0.36,4.3-0.58,6.7-0.58c3.7,0,6.13,0.7,7.81,2.22c1.33,1.18,2.11,3.02,2.11,5.12
				c0,3.54-2.26,5.9-5.08,6.87v0.1c2.06,0.72,3.3,2.67,3.95,5.46c0.89,3.77,1.53,6.34,2.07,7.4H57.7c-0.42-0.78-1.03-3.08-1.77-6.45
				c-0.8-3.69-2.26-5.12-5.41-5.23h-3.29v11.68h-3.48V91.82z M47.23,104.09h3.56c3.73,0,6.09-2.03,6.09-5.12
				c0-3.5-2.53-5.02-6.2-5.03c-1.69,0-2.86,0.15-3.45,0.31V104.09z"/>
			<path class="st3" d="M79.22,105.77H68.77v9.74h11.69v2.9H65.27V91.45h14.57v2.9H68.77v8.54h10.45V105.77z"/>
			<path class="st3" d="M89.32,109.94l-2.79,8.47h-3.61l9.17-26.96h4.19l9.21,26.96h-3.72l-2.89-8.47H89.32z M98.17,107.21
				l-2.67-7.76c-0.58-1.76-0.99-3.37-1.39-4.92h-0.09c-0.39,1.58-0.81,3.22-1.34,4.87l-2.66,7.8H98.17z"/>
			<path class="st3" d="M109.43,91.82c2.14-0.35,4.67-0.58,7.41-0.58c4.99,0,8.56,1.18,10.92,3.39c2.41,2.18,3.82,5.3,3.82,9.64
				c0,4.42-1.38,8-3.88,10.49c-2.55,2.51-6.71,3.89-11.93,3.89c-2.49,0-4.56-0.1-6.33-0.3V91.82z M112.92,115.67
				c0.88,0.14,2.17,0.16,3.5,0.16c7.46,0.02,11.48-4.14,11.48-11.43c0.04-6.37-3.56-10.38-10.9-10.38c-1.8,0-3.15,0.17-4.08,0.35
				V115.67z"/>
			<path class="st3" d="M139.57,91.45v26.96h-3.5V91.45H139.57z"/>
			<path class="st3" d="M145.63,118.41V91.45h3.83l8.63,13.62c1.97,3.16,3.54,6,4.81,8.78l0.09-0.04c-0.32-3.6-0.38-6.88-0.38-11.06
				v-11.3h3.28v26.96h-3.54l-8.57-13.66c-1.86-3.02-3.67-6.09-5.01-9.03l-0.12,0.04c0.21,3.42,0.26,6.66,0.26,11.12v11.53H145.63z"
				/>
			<path class="st3" d="M192.49,117.2c-1.56,0.59-4.66,1.48-8.29,1.48c-4.09,0-7.46-1.03-10.08-3.56
				c-2.32-2.24-3.75-5.81-3.75-10.01c0.01-8.04,5.54-13.92,14.57-13.92c3.11,0,5.58,0.69,6.74,1.24l-0.87,2.84
				c-1.44-0.65-3.23-1.15-5.95-1.15c-6.54,0-10.83,4.07-10.83,10.82c0,6.83,4.1,10.88,10.41,10.88c2.28,0,3.82-0.32,4.62-0.73v-8.03
				h-5.46v-2.78h8.88V117.2z"/>
			<path class="st3" d="M197.79,91.82c1.77-0.36,4.3-0.58,6.7-0.58c3.7,0,6.13,0.7,7.81,2.22c1.33,1.18,2.11,3.02,2.11,5.12
				c0,3.54-2.26,5.9-5.08,6.87v0.1c2.05,0.72,3.3,2.67,3.95,5.46c0.89,3.77,1.53,6.34,2.07,7.4h-3.61
				c-0.42-0.78-1.03-3.08-1.77-6.45c-0.8-3.69-2.26-5.12-5.41-5.23h-3.29v11.68h-3.48V91.82z M201.26,104.09h3.56
				c3.73,0,6.09-2.03,6.09-5.12c0-3.5-2.53-5.02-6.2-5.03c-1.69,0-2.86,0.15-3.45,0.31V104.09z"/>
			<path class="st3" d="M242.48,104.66c0,9.25-5.63,14.19-12.51,14.19c-7.15,0-12.12-5.54-12.12-13.68
				c0-8.54,5.29-14.16,12.48-14.16C237.7,91.01,242.48,96.65,242.48,104.66z M221.54,105.09c0,5.77,3.13,10.93,8.62,10.93
				c5.53,0,8.64-5.08,8.64-11.2c0-5.37-2.8-10.97-8.59-10.97C224.42,93.84,221.54,99.19,221.54,105.09z"/>
			<path class="st3" d="M270.04,104.66c0,9.25-5.63,14.19-12.51,14.19c-7.15,0-12.12-5.54-12.12-13.68
				c0-8.54,5.29-14.16,12.48-14.16C265.26,91.01,270.04,96.65,270.04,104.66z M249.1,105.09c0,5.77,3.13,10.93,8.62,10.93
				c5.53,0,8.64-5.08,8.64-11.2c0-5.37-2.8-10.97-8.59-10.97C251.98,93.84,249.1,99.19,249.1,105.09z"/>
			<path class="st3" d="M297.29,106.57c-0.21-3.75-0.45-8.29-0.43-11.63h-0.11c-0.93,3.13-2.05,6.52-3.39,10.22l-4.76,13.08h-2.63
				l-4.39-12.84c-1.28-3.81-2.33-7.27-3.09-10.46h-0.09c-0.09,3.36-0.27,7.85-0.53,11.89l-0.72,11.57h-3.31l1.88-26.96h4.45
				l4.59,13.05c1.11,3.3,2.02,6.27,2.71,9.08h0.11c0.71-2.73,1.65-5.7,2.85-9.08l4.81-13.05h4.45l1.67,26.96h-3.42L297.29,106.57z"
				/>
		</g>
	</g>
	<polyline class="st4" points="68.52,123.91 68.52,136.9 172.2,175.78 275.87,136.9 275.87,123.91 	"/>
	<path class="st5" d="M275.87,72.84"/>
	<polyline class="st4" points="82.42,29.42 82.42,16.21 172.2,55.09 261.98,16.21 261.98,29.42 	"/>
	<polyline class="st4" points="68.52,85.39 68.52,24.8 172.2,63.68 275.87,24.8 275.87,85.39 	"/>
</g>
</svg>
