<?xml version="1.0" encoding="utf-8"?>
<!-- Generator: Adobe Illustrator 25.4.1, SVG Export Plug-In . SVG Version: 6.00 Build 0)  -->
<svg version="1.1" id="Layer_1" xmlns="http://www.w3.org/2000/svg" xmlns:xlink="http://www.w3.org/1999/xlink" x="0px" y="0px"
	 viewBox="0 0 619 94" style="enable-background:new 0 0 619 94;" xml:space="preserve">
<style type="text/css">
	.st0{fill:#FD6F96;}
	.st1{fill:#FFFFFF;}
	.st2{font-family:'PressStart2P-Regular';}
	.st3{font-size:42.854px;}
	.st4{fill:#E2A975;}
	.st5{fill:#D19A6E;}
	.st6{fill:#FFE09F;}
	.st7{fill:#F6D190;}
	.st8{fill:#FBC56D;}
</style>
<path class="st0" d="M604.1,94H14.9C6.7,94,0,87.3,0,79.1V14.9C0,6.7,6.7,0,14.9,0h589.1c8.3,0,14.9,6.7,14.9,14.9v64.1
	C619,87.3,612.3,94,604.1,94z"/>
<text transform="matrix(0.7916 0 0 1 107.4697 66.9945)" class="st1 st2 st3">CREATE ACCOUNT</text>
<g>
	<g>
		<path class="st4" d="M54.2,26.2v32.1L34.2,46.1l-14.4-8.8c-1.8-1.1-1.3-3.8,0.7-4.2l19.8-4.1L54.2,26.2z"/>
		<path class="st5" d="M54.2,26.2v32.1L34.2,46.1l6.2-17.1L54.2,26.2z"/>
		<path class="st4" d="M54.2,26.2v32.1l34.3-21c1.8-1.1,1.3-3.8-0.7-4.2L54.2,26.2z"/>
		<path class="st5" d="M87.7,33.2l-33.6-6.9v1l28.9,6c2,0.4,2.5,3.1,0.7,4.2L54.2,55.5v2.9l34.3-21C90.2,36.3,89.7,33.6,87.7,33.2
			L87.7,33.2z"/>
		<path class="st6" d="M77,78.9L54.2,66.5L31.4,78.9c-1.8,1.1-4-0.7-3.3-2.7L45.5,28L52,9.9c0.7-2,3.5-2,4.3,0L62.8,28l17.4,48.1
			C81,78.2,78.8,80,77,78.9L77,78.9z"/>
		<g>
			<path class="st7" d="M80.2,76.1L62.8,28L56.3,9.9c-0.7-2-3.5-2-4.3,0l-0.2,0.6L58.1,28l17.4,48.1c0.2,0.7,0.2,1.4-0.1,1.9
				l1.6,0.9C78.8,80,81,78.2,80.2,76.1L80.2,76.1z"/>
		</g>
		<path class="st7" d="M62.8,28l-8.7,38.5L45.5,28L52,9.9c0.7-2,3.5-2,4.3,0L62.8,28z"/>
		<path class="st8" d="M56.3,9.9c-0.7-2-3.5-2-4.3,0l-0.7,1.9c0.7,0.2,1.2,0.6,1.5,1.4L58.1,28l-6.3,28l2.4,10.4L62.8,28L56.3,9.9z"
			/>
	</g>
	<path d="M90.6,34.8c-0.2-1.4-1.3-2.4-2.6-2.7l-24.3-5L57.3,9.6c-0.9-2.8-5.2-3-6.3,0l-6.3,17.5l-24.3,5c-1.4,0.3-2.4,1.3-2.6,2.7
		c-0.2,1.4,0.4,2.7,1.6,3.4L36.8,49l-9.7,26.8c-0.5,1.3-0.1,2.8,1,3.7c1,0.8,2.4,1.1,3.8,0.3l22.3-12.1l22.3,12.1
		c1.2,0.7,2.7,0.6,3.8-0.3c1.1-0.9,1.5-2.4,1-3.7L64.5,29.5l23,4.8c0.7,0.2,0.9,0.8,0.9,1c0,0.2,0.1,0.8-0.6,1.2l-13.8,8.4
		c-0.5,0.3-0.7,1-0.4,1.5c0.2,0.3,0.6,0.5,0.9,0.5c0.2,0,0.4-0.1,0.6-0.2L89,38.3C90.2,37.5,90.8,36.2,90.6,34.8L90.6,34.8z
		 M53.1,10.2v5.7c0,0.6,0.5,1.1,1.1,1.1s1.1-0.5,1.1-1.1v-5.7c0,0,6.5,17.9,6.5,17.9l-6.5,28.8v-36c0-0.6-0.5-1.1-1.1-1.1
		c-0.6,0-1.1,0.5-1.1,1.1v36l-6.5-28.8C46.6,28.1,53.1,10.2,53.1,10.2L53.1,10.2z M20.4,36.4c-0.6-0.4-0.6-1-0.6-1.2
		c0-0.2,0.2-0.8,0.9-1l23-4.8l-6.3,17.4L20.4,36.4z M30.9,77.9C30.8,78,30.8,78,30.9,77.9c-0.7,0.4-1.3,0-1.4-0.1
		c-0.2-0.1-0.6-0.6-0.4-1.3l16.2-44.7l7.7,34.1L30.9,77.9z M78.9,77.9c-0.2,0.1-0.7,0.5-1.4,0.1c0,0,0,0,0,0l-22.1-12l7.7-34.1
		l16.2,44.7C79.5,77.3,79,77.7,78.9,77.9L78.9,77.9z"/>
</g>
</svg>
