<?xml version="1.0" encoding="utf-8"?>
<!-- Generator: Adobe Illustrator 25.4.1, SVG Export Plug-In . SVG Version: 6.00 Build 0)  -->
<svg version="1.1" id="Capa_1" xmlns="http://www.w3.org/2000/svg" xmlns:xlink="http://www.w3.org/1999/xlink" x="0px" y="0px"
	 viewBox="0 0 377.7 92.6" style="enable-background:new 0 0 377.7 92.6;" xml:space="preserve">
<style type="text/css">
	.st0{fill:#FD6F96;}
	.st1{fill:#8BB3EA;}
	.st2{fill:#739AD6;}
	.st3{fill:#EDF4FF;}
	.st4{fill:#DBEAFF;}
	.st5{fill:#FF8086;}
	.st6{fill:#E5646E;}
	.st7{fill:#B8DAFF;}
	.st8{fill:#A4CCFF;}
	.st9{fill:#FFFFFF;}
	.st10{font-family:'PressStart2P-Regular';}
	.st11{font-size:42.854px;}
</style>
<path class="st0" d="M356.2,92.6H21.5C9.6,92.6,0,83.3,0,71.9V20.8C0,9.3,9.6,0,21.5,0h334.7c11.9,0,21.5,9.3,21.5,20.8v51.1
	C377.7,83.3,368.1,92.6,356.2,92.6z"/>
<g>
	<g>
		<path class="st1" d="M88,75.5H15.3L51.7,9.1L88,75.5z"/>
		<path class="st1" d="M88,75.5H15.3l33.4-60.9l3-5.4L88,75.5z"/>
		<path class="st2" d="M88,75.5h-4.4l-18.5-6.7c-1.2-0.4-2.1-1.4-2.4-2.5l-14-51.7l3-5.4L88,75.5z"/>
		<path class="st3" d="M88,75.5l-18.5-6.7c-1.2-0.4-2.1-1.4-2.4-2.5L51.7,9.1l13.9,25.3l8.1,14.8L88,75.5z"/>
		<path class="st4" d="M73.6,49.2h-5.5c-0.4,0-0.8-0.1-1.1-0.2c-0.9-0.4-1.5-1.2-1.5-2.1V34.8c0-0.1,0-0.3,0.1-0.4L73.6,49.2z"/>
		<path class="st4" d="M82.5,73.5l5.5,2L51.7,9.1l4.3,16L82.5,73.5z"/>
		<path class="st5" d="M91.5,33.5L78.8,44.6h7.5c0.9,0,1.6,0.6,1.6,1.4v1.7c0,0.8-0.7,1.4-1.6,1.4H72.5c-0.4,0-0.8-0.1-1.1-0.2
			c-0.9-0.4-1.5-1.2-1.5-2.1V34.8c0-0.8,0.7-1.4,1.6-1.4h1.9c0.9,0,1.6,0.6,1.6,1.4v6.6l12.7-11.2c0.6-0.6,1.7-0.6,2.3,0l1.4,1.2
			C92.1,32,92.1,32.9,91.5,33.5L91.5,33.5z"/>
		<g>
			<path class="st6" d="M91.5,31.4l-1.4-1.2c-0.6-0.6-1.7-0.6-2.3,0l-1.1,0.9l0.3,0.3c0.6,0.6,0.6,1.5,0,2l-11.2,9.8
				c-0.6,0.5-0.2,1.4,0.6,1.4h2.2l12.7-11.2C92.1,32.9,92.1,32,91.5,31.4L91.5,31.4z"/>
			<path class="st6" d="M86.3,44.6h-4.4c0.9,0,1.6,0.6,1.6,1.4v1.7c0,0.8-0.7,1.4-1.6,1.4h4.4c0.9,0,1.6-0.6,1.6-1.4v-1.7
				C87.9,45.3,87.2,44.6,86.3,44.6L86.3,44.6z"/>
		</g>
		<path class="st7" d="M51.7,9.1v68.7c0,1.2-1.2,2.2-2.6,2l-33.7-4.4L51.7,9.1z"/>
		<path class="st8" d="M47.2,17.2v60.7c0,0.7-0.4,1.3-0.9,1.6l2.8,0.4c1.4,0.2,2.6-0.8,2.6-2V9.1L47.2,17.2z"/>
	</g>
	<path d="M92.3,30.7L91,29.5c-1.1-1-2.9-1-4,0l-10.6,9.4v-4c0-1.4-1.3-2.5-2.9-2.5h-1.9c-1.6,0-2.9,1.1-2.9,2.5v2.9l-15.9-29
		c-0.4-0.7-1.7-0.9-2.2,0L14.2,75c-0.3,0.6,0.1,1.4,0.9,1.5l33.7,4.4c1.8,0.3,4.1-1.1,4-3V18.2l13.1,48.3c0.4,1.5,1.6,2.7,3.1,3.2
		l12.8,4.7H57.5c-0.7,0-1.2,0.5-1.2,1.1c0,0.6,0.5,1.1,1.2,1.1H88c0.7,0,1.6-0.8,1.1-1.5L77.5,53.8c-0.3-0.5-1-0.8-1.6-0.5
		c-0.6,0.3-0.9,0.9-0.6,1.4l10.3,18.7L70,67.8c-0.9-0.3-1.5-1-1.7-1.8L55.4,18.5l13.2,24.1v4.3c0,1.7,1.6,3.4,3.9,3.4h13.7
		c1.6,0,2.9-1.1,2.9-2.5v-1.7c0-1.4-1.3-2.5-2.9-2.5h-4.6l10.6-9.4C93.5,33.2,93.5,31.7,92.3,30.7L92.3,30.7z M50.4,77.9
		c-0.1,0.6-0.3,0.9-1.2,0.9l-32.1-4.2l33.3-60.8V77.9z M90.6,32.7L77.9,43.9c-0.3,0.3-0.5,0.8-0.3,1.2c0.2,0.4,0.6,0.7,1.1,0.7h7.5
		c0.2,0,0.4,0.2,0.4,0.4v1.7c0,0.2-0.2,0.4-0.4,0.4H72.5c-0.6,0-1.4-0.4-1.4-1.2V34.8c0-0.2,0.2-0.4,0.4-0.4h1.9
		c0.2,0,0.4,0.2,0.4,0.4v6.6c0,0.4,0.3,0.8,0.8,1c0.5,0.2,1,0.1,1.3-0.2L88.7,31c0.2-0.1,0.4-0.1,0.6,0l1.4,1.2
		C90.8,32.3,90.8,32.6,90.6,32.7L90.6,32.7z"/>
</g>
<text transform="matrix(0.7916 0 0 1 97.3081 66.6199)" class="st9 st10 st11">SIGN UP</text>
</svg>
