<?xml version="1.0" encoding="utf-8"?>
<!-- Generator: Adobe Illustrator 25.4.1, SVG Export Plug-In . SVG Version: 6.00 Build 0)  -->
<svg version="1.1" id="Layer_1" xmlns="http://www.w3.org/2000/svg" xmlns:xlink="http://www.w3.org/1999/xlink" x="0px" y="0px"
	 viewBox="0 0 358 191" style="enable-background:new 0 0 358 191;" xml:space="preserve">
<style type="text/css">
	.st0{fill:none;}
	.st1{fill:#FFFFFF;stroke:#000000;stroke-width:0.25;}
	.st2{fill:#FFFFFF;}
	.st3{fill:#FFFFFF;stroke:#FFFFFF;stroke-width:0.25;}
	.st4{fill:none;stroke:#FFFFFF;stroke-width:7;stroke-miterlimit:10;}
	.st5{fill:#95DAC1;stroke:#000000;stroke-width:7;stroke-miterlimit:10;}
</style>
<rect x="0" y="-0.4" class="st0" width="358" height="191.8"/>
<g>
	<g>
		<path class="st1" d="M43.2,91.9c3.9-0.8,11.9-1.2,14.5,1.6c4,3.4,1.9,10.9-3,12v0.1c4.2,0.8,4.8,11.1,6,12.9h-3.6
			c-2.3-5.6-0.7-13.1-10.5-11.7v11.7h-3.5V91.9z M46.7,104.1c13.2,2,12.6-12.8,0-9.8V104.1z"/>
		<path class="st1" d="M78.7,105.8H68.3v9.7H80v2.9H64.8v-27h14.6v2.9H68.3v8.5h10.4C78.7,102.9,78.7,105.8,78.7,105.8z"/>
		<path class="st1" d="M88.8,110l-2.8,8.5h-3.6l9.2-27h4.2l9.2,27h-3.7l-2.9-8.5H88.8z M97.7,107.2c-1.1-3.1-3.4-9.6-4.1-12.7h-0.1
			c-0.6,3.1-2.9,9.5-4,12.7L97.7,107.2L97.7,107.2z"/>
		<path class="st1" d="M108.9,91.9c30.1-6.9,29.6,32.2,0,26.5L108.9,91.9L108.9,91.9z M112.4,115.7c19.7,4,20.5-26,0-21.3
			C112.4,94.4,112.4,115.7,112.4,115.7z"/>
		<path class="st1" d="M139.1,91.5v27h-3.5v-27H139.1z"/>
		<path class="st1" d="M145.1,118.4v-27h3.8c3.4,5.5,11.1,16.8,13.4,22.4l0.1,0c-0.6-6-0.3-16-0.4-22.4h3.3v27h-3.5
			c-3.5-5.7-10.9-16.8-13.6-22.7l-0.1,0c0.4,5.6,0.2,16.4,0.3,22.7H145.1z"/>
		<path class="st1" d="M192,117.2c-28.7,10.8-29.8-33.8-0.8-24.8l-0.9,2.8c-20.8-8.5-23.1,26.1-1.8,19.8v-8h-5.5v-2.8h8.9L192,117.2
			L192,117.2z"/>
		<path class="st1" d="M197.3,91.9c3.9-0.8,11.9-1.2,14.5,1.6c4,3.4,1.9,10.9-3,12v0.1c4.2,0.8,4.8,11.1,6,12.9h-3.6
			c-2.3-5.6-0.7-13.1-10.5-11.7v11.7h-3.5V91.9z M200.8,104.1c13.2,2,12.6-12.8,0-9.8V104.1z"/>
		<path class="st1" d="M242,104.7c0.6,18.9-25.2,18.5-24.6,0.5C216.8,86.7,242.5,86.4,242,104.7z M221,105.1
			c-0.4,14.4,17.8,14.4,17.3-0.3C238.6,90.4,220.6,90.3,221,105.1z"/>
		<path class="st1" d="M269.5,104.7c0.6,18.9-25.2,18.5-24.6,0.5C244.4,86.7,270,86.4,269.5,104.7z M248.6,105.1
			c-0.4,14.4,17.8,14.4,17.3-0.3C266.2,90.4,248.2,90.3,248.6,105.1z"/>
		<path class="st1" d="M296.8,106.6c-0.2-3.8-0.5-8.3-0.4-11.6h-0.1c-1.7,5.9-6,17.2-8.2,23.3h-2.6c-2.1-6.2-6.1-17.3-7.5-23.3h-0.1
			c-0.1,6.2-0.8,16.9-1.2,23.5h-3.3l1.9-27h4.5c1.9,5.6,6.1,16.7,7.3,22.1h0.1c1.3-5.3,5.7-16.6,7.7-22.1h4.5l1.7,27h-3.4
			L296.8,106.6z"/>
	</g>
	<g>
		<path class="st2" d="M43.2,91.9c3.9-0.8,11.9-1.2,14.5,1.6c4,3.4,1.9,10.9-3,12v0.1c4.2,0.8,4.8,11.1,6,12.9h-3.6
			c-2.3-5.6-0.7-13.1-10.5-11.7v11.7h-3.5V91.9z M46.7,104.1c13.2,2,12.6-12.8,0-9.8V104.1z"/>
		<path class="st2" d="M78.7,105.8H68.3v9.7H80v2.9H64.8v-27h14.6v2.9H68.3v8.5h10.4C78.7,102.9,78.7,105.8,78.7,105.8z"/>
		<path class="st2" d="M88.8,110l-2.8,8.5h-3.6l9.2-27h4.2l9.2,27h-3.7l-2.9-8.5H88.8z M97.7,107.2c-1.1-3.1-3.4-9.6-4.1-12.7h-0.1
			c-0.6,3.1-2.9,9.5-4,12.7L97.7,107.2L97.7,107.2z"/>
		<path class="st2" d="M108.9,91.9c30.1-6.9,29.6,32.2,0,26.5L108.9,91.9L108.9,91.9z M112.4,115.7c19.7,4,20.5-26,0-21.3
			C112.4,94.4,112.4,115.7,112.4,115.7z"/>
		<path class="st2" d="M139.1,91.5v27h-3.5v-27H139.1z"/>
		<path class="st2" d="M145.1,118.4v-27h3.8c3.4,5.5,11.1,16.8,13.4,22.4l0.1,0c-0.6-6-0.3-16-0.4-22.4h3.3v27h-3.5
			c-3.5-5.7-10.9-16.8-13.6-22.7l-0.1,0c0.4,5.6,0.2,16.4,0.3,22.7H145.1z"/>
		<path class="st2" d="M192,117.2c-28.7,10.8-29.8-33.8-0.8-24.8l-0.9,2.8c-20.8-8.5-23.1,26.1-1.8,19.8v-8h-5.5v-2.8h8.9L192,117.2
			L192,117.2z"/>
		<path class="st2" d="M197.3,91.9c3.9-0.8,11.9-1.2,14.5,1.6c4,3.4,1.9,10.9-3,12v0.1c4.2,0.8,4.8,11.1,6,12.9h-3.6
			c-2.3-5.6-0.7-13.1-10.5-11.7v11.7h-3.5V91.9z M200.8,104.1c13.2,2,12.6-12.8,0-9.8V104.1z"/>
		<path class="st2" d="M242,104.7c0.6,18.9-25.2,18.5-24.6,0.5C216.8,86.7,242.5,86.4,242,104.7z M221,105.1
			c-0.4,14.4,17.8,14.4,17.3-0.3C238.6,90.4,220.6,90.3,221,105.1z"/>
		<path class="st2" d="M269.5,104.7c0.6,18.9-25.2,18.5-24.6,0.5C244.4,86.7,270,86.4,269.5,104.7z M248.6,105.1
			c-0.4,14.4,17.8,14.4,17.3-0.3C266.2,90.4,248.2,90.3,248.6,105.1z"/>
		<path class="st2" d="M296.8,106.6c-0.2-3.8-0.5-8.3-0.4-11.6h-0.1c-1.7,5.9-6,17.2-8.2,23.3h-2.6c-2.1-6.2-6.1-17.3-7.5-23.3h-0.1
			c-0.1,6.2-0.8,16.9-1.2,23.5h-3.3l1.9-27h4.5c1.9,5.6,6.1,16.7,7.3,22.1h0.1c1.3-5.3,5.7-16.6,7.7-22.1h4.5l1.7,27h-3.4
			L296.8,106.6z"/>
	</g>
	<g>
		<path class="st3" d="M43.2,91.9c3.9-0.8,11.9-1.2,14.5,1.6c4,3.4,1.9,10.9-3,12v0.1c4.2,0.8,4.8,11.1,6,12.9h-3.6
			c-2.3-5.6-0.7-13.1-10.5-11.7v11.7h-3.5V91.9z M46.7,104.1c13.2,2,12.6-12.8,0-9.8V104.1z"/>
		<path class="st3" d="M78.7,105.8H68.3v9.7H80v2.9H64.8v-27h14.6v2.9H68.3v8.5h10.4C78.7,102.9,78.7,105.8,78.7,105.8z"/>
		<path class="st3" d="M88.8,110l-2.8,8.5h-3.6l9.2-27h4.2l9.2,27h-3.7l-2.9-8.5H88.8z M97.7,107.2c-1.1-3.1-3.4-9.6-4.1-12.7h-0.1
			c-0.6,3.1-2.9,9.5-4,12.7L97.7,107.2L97.7,107.2z"/>
		<path class="st3" d="M108.9,91.9c30.1-6.9,29.6,32.2,0,26.5L108.9,91.9L108.9,91.9z M112.4,115.7c19.7,4,20.5-26,0-21.3
			C112.4,94.4,112.4,115.7,112.4,115.7z"/>
		<path class="st3" d="M139.1,91.5v27h-3.5v-27H139.1z"/>
		<path class="st3" d="M145.1,118.4v-27h3.8c3.4,5.5,11.1,16.8,13.4,22.4l0.1,0c-0.6-6-0.3-16-0.4-22.4h3.3v27h-3.5
			c-3.5-5.7-10.9-16.8-13.6-22.7l-0.1,0c0.4,5.6,0.2,16.4,0.3,22.7H145.1z"/>
		<path class="st3" d="M192,117.2c-28.7,10.8-29.8-33.8-0.8-24.8l-0.9,2.8c-20.8-8.5-23.1,26.1-1.8,19.8v-8h-5.5v-2.8h8.9L192,117.2
			L192,117.2z"/>
		<path class="st3" d="M197.3,91.9c3.9-0.8,11.9-1.2,14.5,1.6c4,3.4,1.9,10.9-3,12v0.1c4.2,0.8,4.8,11.1,6,12.9h-3.6
			c-2.3-5.6-0.7-13.1-10.5-11.7v11.7h-3.5V91.9z M200.8,104.1c13.2,2,12.6-12.8,0-9.8V104.1z"/>
		<path class="st3" d="M242,104.7c0.6,18.9-25.2,18.5-24.6,0.5C216.8,86.7,242.5,86.4,242,104.7z M221,105.1
			c-0.4,14.4,17.8,14.4,17.3-0.3C238.6,90.4,220.6,90.3,221,105.1z"/>
		<path class="st3" d="M269.5,104.7c0.6,18.9-25.2,18.5-24.6,0.5C244.4,86.7,270,86.4,269.5,104.7z M248.6,105.1
			c-0.4,14.4,17.8,14.4,17.3-0.3C266.2,90.4,248.2,90.3,248.6,105.1z"/>
		<path class="st3" d="M296.8,106.6c-0.2-3.8-0.5-8.3-0.4-11.6h-0.1c-1.7,5.9-6,17.2-8.2,23.3h-2.6c-2.1-6.2-6.1-17.3-7.5-23.3h-0.1
			c-0.1,6.2-0.8,16.9-1.2,23.5h-3.3l1.9-27h4.5c1.9,5.6,6.1,16.7,7.3,22.1h0.1c1.3-5.3,5.7-16.6,7.7-22.1h4.5l1.7,27h-3.4
			L296.8,106.6z"/>
	</g>
</g>
<polyline class="st4" points="68,123.9 68,136.9 171.7,175.8 275.4,136.9 275.4,123.9 "/>
<path class="st5" d="M275.4,72.9"/>
<polyline class="st4" points="81.9,29.5 81.9,16.2 171.7,55.1 261.5,16.2 261.5,29.5 "/>
<polyline class="st4" points="68,85.4 68,24.8 171.7,63.7 275.4,24.8 275.4,85.4 "/>
</svg>
